<svg width="1369" height="768" viewBox="0 0 1369 768" fill="none" xmlns="http://www.w3.org/2000/svg">
<rect width="1369" height="768"/>
<rect width="1369" height="768" fill="black" fill-opacity="0.6"/>
<path d="M457.505 380.354C456.879 378.87 455.97 377.523 454.829 376.386C453.691 375.246 452.344 374.338 450.861 373.71C450.848 373.703 450.834 373.7 450.821 373.693C452.89 372.199 454.234 369.765 454.234 367.02C454.234 362.471 450.549 358.785 446 358.785C441.451 358.785 437.766 362.471 437.766 367.02C437.766 369.765 439.11 372.199 441.179 373.697C441.166 373.703 441.152 373.707 441.139 373.713C439.652 374.341 438.317 375.241 437.171 376.389C436.031 377.527 435.123 378.874 434.495 380.357C433.879 381.809 433.546 383.366 433.516 384.943C433.515 384.978 433.521 385.013 433.534 385.046C433.547 385.079 433.566 385.109 433.591 385.135C433.616 385.16 433.645 385.18 433.678 385.194C433.711 385.208 433.746 385.215 433.781 385.215H435.773C435.919 385.215 436.036 385.099 436.039 384.956C436.105 382.393 437.135 379.992 438.954 378.172C440.837 376.29 443.337 375.254 446 375.254C448.663 375.254 451.163 376.29 453.046 378.172C454.865 379.992 455.894 382.393 455.961 384.956C455.964 385.102 456.08 385.215 456.227 385.215H458.219C458.254 385.215 458.289 385.208 458.322 385.194C458.355 385.18 458.384 385.16 458.409 385.135C458.434 385.109 458.453 385.079 458.466 385.046C458.479 385.013 458.485 384.978 458.484 384.943C458.451 383.355 458.122 381.812 457.505 380.354ZM446 372.73C444.476 372.73 443.042 372.136 441.962 371.057C440.883 369.978 440.289 368.544 440.289 367.02C440.289 365.496 440.883 364.061 441.962 362.982C443.042 361.903 444.476 361.309 446 361.309C447.524 361.309 448.958 361.903 450.037 362.982C451.117 364.061 451.711 365.496 451.711 367.02C451.711 368.544 451.117 369.978 450.037 371.057C448.958 372.136 447.524 372.73 446 372.73Z" fill="white"/>
</svg>
