<svg width="32" height="32" viewBox="0 0 32 32" fill="none" xmlns="http://www.w3.org/2000/svg">
<path d="M8 8H10V12H8V8Z" fill="white"/>
<path d="M8 14H10V18H8V14Z" fill="white"/>
<path d="M14 8H16V12H14V8Z" fill="white"/>
<path d="M14 14H16V18H14V14Z" fill="white"/>
<path d="M8 20H10V24H8V20Z" fill="white"/>
<path d="M14 20H16V24H14V20Z" fill="white"/>
<path d="M30 14C30 13.4696 29.7893 12.9609 29.4142 12.5858C29.0391 12.2107 28.5304 12 28 12H22V4C22 3.46957 21.7893 2.96086 21.4142 2.58579C21.0391 2.21071 20.5304 2 20 2H4C3.46957 2 2.96086 2.21071 2.58579 2.58579C2.21071 2.96086 2 3.46957 2 4V30H30V14ZM4 4H20V28H4V4ZM22 28V14H28V28H22Z" fill="white"/>
</svg>
