<svg width="430" height="312" viewBox="0 0 430 312" fill="none" xmlns="http://www.w3.org/2000/svg">
<path d="M35.7091 59.9289L35.7091 38.2765L99.3926 38.2765V59.9289L80.2876 59.9289L80.2876 156H54.8142L54.8142 59.9289L35.7091 59.9289ZM173.985 60.4748V133.802C173.985 149.814 166.464 157.82 151.423 157.82H127.223C112.181 157.82 104.661 149.814 104.661 133.802L104.661 60.4748C104.661 44.4629 112.181 36.457 127.223 36.457H151.423C166.464 36.457 173.985 44.4629 173.985 60.4748ZM148.511 136.713L148.511 57.3816C148.511 56.4111 148.147 55.562 147.42 54.8342C146.813 54.1064 146.025 53.7425 145.054 53.7425H133.591C132.621 53.7425 131.772 54.1064 131.044 54.8342C130.437 55.562 130.134 56.4111 130.134 57.3816L130.134 136.713C130.134 137.683 130.437 138.533 131.044 139.26C131.772 139.988 132.621 140.352 133.591 140.352H145.054C146.025 140.352 146.813 139.988 147.42 139.26C148.147 138.533 148.511 137.683 148.511 136.713ZM179.694 59.9289V38.2765L243.377 38.2765V59.9289H224.272L224.272 156H198.799L198.799 59.9289L179.694 59.9289ZM274.119 134.893H302.321V156H248.645L248.645 38.2765L302.321 38.2765V59.0191L274.119 59.0191V86.676H300.502V106.691H274.119V134.893ZM335.978 156H310.505L310.505 60.4748C310.505 44.4629 318.026 36.457 333.067 36.457H346.531C355.387 36.457 361.694 39.3682 365.455 45.1907C368.972 39.3682 375.28 36.457 384.378 36.457L397.842 36.457C412.884 36.457 420.404 44.4629 420.404 60.4748L420.404 156H394.931L394.931 58.2913C394.931 57.3209 394.567 56.4718 393.839 55.744C393.233 55.0162 392.444 54.6523 391.474 54.6523L381.648 54.6523C380.678 54.6523 379.829 55.0162 379.101 55.744C378.495 56.4718 378.191 57.3209 378.191 58.2913L378.191 156L352.718 156L352.718 58.2913C352.718 57.3209 352.354 56.4718 351.626 55.744C351.02 55.0162 350.231 54.6523 349.261 54.6523H339.435C338.465 54.6523 337.616 55.0162 336.888 55.744C336.281 56.4718 335.978 57.3209 335.978 58.2913L335.978 156Z" fill="white"/>
<rect y="282.318" width="244.745" height="13.7885" transform="rotate(-90 0 282.318)" fill="#FFC702"/>
<path d="M64.9347 242.765V281.328H43.6795L43.6795 183.099H64.9347L64.9347 224.243H81.7871L81.7871 183.099H103.042L103.042 281.328H81.7871V242.765H64.9347ZM148.014 183.099H169.269L169.269 262.806C169.269 276.166 162.994 282.846 150.443 282.846H131.617C119.066 282.846 112.791 276.166 112.791 262.806L112.791 183.099H134.046L134.046 264.628C134.046 265.437 134.299 266.146 134.805 266.753C135.413 267.36 136.121 267.664 136.931 267.664H145.129C145.939 267.664 146.597 267.36 147.103 266.753C147.71 266.146 148.014 265.437 148.014 264.628L148.014 183.099ZM226.476 227.583C233.055 229.911 236.344 235.275 236.344 243.676V261.287C236.344 274.648 230.069 281.328 217.518 281.328H178.499L178.499 183.099H216.303C228.854 183.099 235.129 189.779 235.129 203.139L235.129 212.097C235.129 220.194 232.245 225.356 226.476 227.583ZM210.99 197.522H199.755L199.755 223.787L210.99 223.787C211.799 223.787 212.457 223.484 212.963 222.876C213.571 222.269 213.874 221.56 213.874 220.751L213.874 200.558C213.874 199.749 213.571 199.04 212.963 198.433C212.457 197.826 211.799 197.522 210.99 197.522ZM215.089 263.717V241.702C215.089 240.893 214.785 240.184 214.178 239.577C213.672 238.97 213.014 238.666 212.204 238.666L199.755 238.666V266.753L212.204 266.753C213.014 266.753 213.672 266.449 214.178 265.842C214.785 265.235 215.089 264.526 215.089 263.717Z" fill="#FFC702"/>
</svg>
