<svg width="247" height="78" viewBox="0 0 247 78" fill="none" xmlns="http://www.w3.org/2000/svg">
<path d="M1.88246 25.2991L1.88246 16.6401L27.3501 16.6401L27.3501 25.2991L19.7098 25.2991L19.7098 63.7187L9.52274 63.7188L9.52274 25.2991L1.88246 25.2991ZM55.361 37.0869L55.361 54.8415C55.361 61.2448 52.3534 64.4464 46.3382 64.4464H38.1158C32.1006 64.4464 29.093 61.2448 29.093 54.8415L29.093 37.0869C29.093 30.6836 32.1006 27.482 38.1158 27.482L46.3382 27.482C52.3534 27.482 55.361 30.6836 55.361 37.0869ZM45.6105 56.8789L45.6105 34.9768C45.6105 34.5887 45.465 34.2491 45.174 33.958C44.9314 33.667 44.6161 33.5215 44.228 33.5215H40.226C39.8379 33.5215 39.4983 33.667 39.2073 33.958C38.9647 34.2491 38.8434 34.5887 38.8434 34.9768L38.8434 56.8789C38.8434 57.267 38.9647 57.6065 39.2073 57.8976C39.4983 58.1886 39.8379 58.3342 40.226 58.3342H44.228C44.6161 58.3342 44.9314 58.1886 45.174 57.8976C45.465 57.6065 45.6105 57.267 45.6105 56.8789ZM72.3987 58.1159H75.3093V64.4464H68.4694C62.4542 64.4464 59.4466 61.2448 59.4466 54.8415L59.4466 20.4966L69.1971 20.4966V28.2096H75.3093L75.3093 35.2678H69.1971V54.6232C69.1971 55.9815 69.4639 56.9031 69.9975 57.3882C70.5311 57.8733 71.3315 58.1159 72.3987 58.1159ZM95.1075 27.482C101.123 27.482 104.13 30.6836 104.13 37.0869V48.5837H87.6127V56.0057C87.6127 56.3938 87.734 56.7334 87.9766 57.0244C88.2676 57.3155 88.6072 57.461 88.9953 57.461H92.9973C93.3854 57.461 93.7007 57.3155 93.9433 57.0244C94.2343 56.7334 94.3798 56.3938 94.3798 56.0057V52.0764H104.13V54.8415C104.13 61.2448 101.123 64.4464 95.1075 64.4464H86.8851C80.8699 64.4464 77.8623 61.2448 77.8623 54.8415V37.0869C77.8623 30.6836 80.8699 27.482 86.8851 27.482L95.1075 27.482ZM87.6127 42.1804H94.3798V35.6316C94.3798 35.2436 94.2343 34.904 93.9433 34.6129C93.7007 34.3219 93.3854 34.1763 92.9973 34.1763H88.9953C88.6072 34.1763 88.2676 34.3219 87.9766 34.6129C87.734 34.904 87.6127 35.2436 87.6127 35.6316V42.1804ZM138.953 27.482C144.968 27.482 147.976 30.6836 147.976 37.0869L147.976 63.7187H138.226L138.226 35.9227C138.226 35.5346 138.08 35.195 137.789 34.904C137.546 34.6129 137.231 34.4674 136.843 34.4674H133.714C133.326 34.4674 132.987 34.6129 132.696 34.904C132.453 35.195 132.332 35.5346 132.332 35.9227L132.332 63.7187H122.581V35.9227C122.581 35.5346 122.436 35.195 122.145 34.904C121.902 34.6129 121.587 34.4674 121.199 34.4674L118.07 34.4674C117.682 34.4674 117.342 34.6129 117.051 34.904C116.809 35.195 116.687 35.5346 116.687 35.9227V63.7187H106.937L106.937 28.2096L115.814 28.2096V30.0288C117.318 28.3309 119.598 27.482 122.654 27.482H123.309C126.899 27.482 129.397 28.5977 130.804 30.8292C132.307 28.5977 134.806 27.482 138.298 27.482H138.953Z" fill="black"/>
<path d="M160.826 45.5168V64H150.639L150.639 16.9187L160.826 16.9187V36.639L168.904 36.639V16.9187H179.091V64H168.904V45.5168L160.826 45.5168ZM199.991 28.4889L209.742 28.4889V64H200.864V62.1808C199.361 63.8787 197.08 64.7277 194.024 64.7277H192.496C186.48 64.7277 183.473 61.5259 183.473 55.1222V28.4889L193.224 28.4889V56.2865C193.224 56.6746 193.345 57.0142 193.588 57.3053C193.879 57.5964 194.218 57.7419 194.606 57.7419L198.609 57.7419C198.997 57.7419 199.312 57.5964 199.555 57.3053C199.846 57.0142 199.991 56.6746 199.991 56.2865V28.4889ZM229.546 27.7612H231.074C237.09 27.7612 240.097 30.963 240.097 37.3667V55.1222C240.097 61.5259 237.09 64.7277 231.074 64.7277H229.546C226.053 64.7277 223.555 63.6119 222.051 61.3803V64H213.828V16.9187H223.579V29.5077C225.131 28.3434 227.12 27.7612 229.546 27.7612ZM223.579 36.2024V56.2865C223.579 56.6746 223.7 57.0142 223.943 57.3053C224.234 57.5964 224.574 57.7419 224.962 57.7419H228.964C229.352 57.7419 229.667 57.5964 229.91 57.3053C230.201 57.0142 230.346 56.6746 230.346 56.2865V36.2024C230.346 35.8143 230.201 35.4747 229.91 35.1836C229.667 34.8925 229.352 34.747 228.964 34.747H224.962C224.574 34.747 224.234 34.8925 223.943 35.1836C223.7 35.4747 223.579 35.8143 223.579 36.2024Z" fill="#FFC702"/>
</svg>
