<svg width="299" height="45" viewBox="0 0 299 45" fill="none" xmlns="http://www.w3.org/2000/svg">
<path d="M32.1188 2.99574V10.998H21.2544V44H11.2662V10.998H0.401855V2.99574H32.1188ZM49.9236 44.4673C46.7305 44.4673 43.8489 43.7858 41.2788 42.4229C38.7477 41.06 36.7422 39.113 35.2625 36.5819C33.8217 34.0507 33.1013 31.0913 33.1013 27.7034C33.1013 24.3546 33.8412 21.4146 35.3209 18.8834C36.8006 16.3134 38.8256 14.3469 41.3956 12.984C43.9657 11.621 46.8473 10.9396 50.0404 10.9396C53.2335 10.9396 56.1151 11.621 58.6852 12.984C61.2552 14.3469 63.2801 16.3134 64.7599 18.8834C66.2396 21.4146 66.9795 24.3546 66.9795 27.7034C66.9795 31.0523 66.2201 34.0118 64.7015 36.5819C63.2217 39.113 61.1774 41.06 58.5683 42.4229C55.9983 43.7858 53.1167 44.4673 49.9236 44.4673ZM49.9236 35.8225C51.8317 35.8225 53.4477 35.1216 54.7717 33.7197C56.1346 32.3179 56.816 30.3124 56.816 27.7034C56.816 25.0944 56.154 23.089 54.8301 21.6871C53.545 20.2853 51.9485 19.5844 50.0404 19.5844C48.0934 19.5844 46.4773 20.2853 45.1923 21.6871C43.9073 23.0501 43.2648 25.0555 43.2648 27.7034C43.2648 30.3124 43.8878 32.3179 45.1339 33.7197C46.4189 35.1216 48.0155 35.8225 49.9236 35.8225ZM88.3997 35.5305V44H83.318C79.6966 44 76.8734 43.1238 74.8485 41.3715C72.8236 39.5803 71.8111 36.6792 71.8111 32.6683V19.7012H67.8392V11.4069H71.8111V3.46303H81.7993V11.4069H88.3413V19.7012H81.7993V32.7852C81.7993 33.7587 82.033 34.4596 82.5003 34.8879C82.9676 35.3163 83.7464 35.5305 84.8367 35.5305H88.3997ZM122.643 27.1777C122.643 28.1123 122.585 29.0858 122.468 30.0983H99.8628C100.019 32.1232 100.661 33.6808 101.79 34.7711C102.959 35.8225 104.38 36.3482 106.054 36.3482C108.547 36.3482 110.279 35.2968 111.253 33.194H121.884C121.338 35.3358 120.345 37.2633 118.905 38.9767C117.503 40.6901 115.731 42.0335 113.589 43.007C111.448 43.9805 109.053 44.4673 106.405 44.4673C103.212 44.4673 100.369 43.7858 97.8769 42.4229C95.3847 41.06 93.4377 39.113 92.0358 36.5819C90.6339 34.0507 89.933 31.0913 89.933 27.7034C89.933 24.3156 90.6145 21.3561 91.9774 18.825C93.3792 16.2939 95.3263 14.3469 97.8185 12.984C100.311 11.621 103.173 10.9396 106.405 10.9396C109.559 10.9396 112.363 11.6016 114.816 12.9255C117.269 14.2495 119.177 16.1381 120.54 18.5914C121.942 21.0446 122.643 23.9067 122.643 27.1777ZM112.421 24.5493C112.421 22.8359 111.837 21.473 110.669 20.4605C109.501 19.4481 108.04 18.9418 106.288 18.9418C104.614 18.9418 103.192 19.4286 102.024 20.4021C100.895 21.3756 100.194 22.758 99.9212 24.5493H112.421ZM167.456 11.0564C171.506 11.0564 174.719 12.283 177.094 14.7363C179.508 17.1895 180.715 20.5968 180.715 24.9581V44H170.786V26.3016C170.786 24.1988 170.221 22.5828 169.092 21.4535C168.001 20.2853 166.483 19.7012 164.536 19.7012C162.589 19.7012 161.051 20.2853 159.921 21.4535C158.831 22.5828 158.286 24.1988 158.286 26.3016V44H148.356V26.3016C148.356 24.1988 147.791 22.5828 146.662 21.4535C145.572 20.2853 144.053 19.7012 142.106 19.7012C140.159 19.7012 138.621 20.2853 137.492 21.4535C136.401 22.5828 135.856 24.1988 135.856 26.3016V44H125.868V11.4069H135.856V15.4956C136.869 14.1327 138.193 13.0618 139.828 12.283C141.464 11.4653 143.313 11.0564 145.377 11.0564C147.83 11.0564 150.011 11.5821 151.919 12.6335C153.866 13.6849 155.385 15.1841 156.475 17.1311C157.604 15.3399 159.142 13.8796 161.089 12.7503C163.037 11.621 165.159 11.0564 167.456 11.0564Z" fill="white"/>
<path d="M221.17 2.99574V44H211.182V27.1193H195.645V44H185.657V2.99574H195.645V19.0587H211.182V2.99574H221.17ZM258.521 11.4069V44H248.532V39.5608C247.52 41.0016 246.138 42.1698 244.385 43.0654C242.672 43.9221 240.764 44.3505 238.661 44.3505C236.169 44.3505 233.969 43.8053 232.061 42.715C230.153 41.5857 228.673 39.9697 227.621 37.8669C226.57 35.7641 226.044 33.2914 226.044 30.4487V11.4069H235.974V29.1053C235.974 31.286 236.539 32.9799 237.668 34.187C238.797 35.3942 240.316 35.9977 242.224 35.9977C244.171 35.9977 245.709 35.3942 246.839 34.187C247.968 32.9799 248.532 31.286 248.532 29.1053V11.4069H258.521ZM273.639 16.0213C274.574 14.5026 275.917 13.276 277.669 12.3414C279.422 11.4069 281.427 10.9396 283.686 10.9396C286.373 10.9396 288.806 11.621 290.987 12.984C293.168 14.3469 294.881 16.2939 296.127 18.825C297.412 21.3561 298.055 24.2961 298.055 27.645C298.055 30.9939 297.412 33.9534 296.127 36.5234C294.881 39.0546 293.168 41.0211 290.987 42.4229C288.806 43.7858 286.373 44.4673 283.686 44.4673C281.388 44.4673 279.383 44.0195 277.669 43.1238C275.956 42.1893 274.613 40.9626 273.639 39.444V44H263.651V0.776137H273.639V16.0213ZM287.891 27.645C287.891 25.1528 287.19 23.2058 285.788 21.804C284.425 20.3632 282.732 19.6428 280.707 19.6428C278.721 19.6428 277.027 20.3632 275.625 21.804C274.262 23.2448 273.581 25.2112 273.581 27.7034C273.581 30.1956 274.262 32.1621 275.625 33.6029C277.027 35.0437 278.721 35.7641 280.707 35.7641C282.693 35.7641 284.387 35.0437 285.788 33.6029C287.19 32.1232 287.891 30.1372 287.891 27.645Z" fill="#FFC702"/>
</svg>
