<svg width="34" height="34" viewBox="0 0 34 34" fill="none" xmlns="http://www.w3.org/2000/svg">
<path d="M28.5048 25.3539C27.8785 23.8703 26.9696 22.5227 25.8287 21.3861C24.6912 20.2463 23.3439 19.3375 21.8609 18.71C21.8476 18.7033 21.8343 18.7 21.8211 18.6934C23.8896 17.1992 25.2343 14.7654 25.2343 12.0195C25.2343 7.4707 21.5488 3.78516 17 3.78516C12.4511 3.78516 8.76559 7.4707 8.76559 12.0195C8.76559 14.7654 10.1103 17.1992 12.1789 18.6967C12.1656 18.7033 12.1523 18.7066 12.139 18.7133C10.6515 19.3408 9.31676 20.2406 8.17125 21.3895C7.03142 22.5269 6.12263 23.8743 5.49508 25.3572C4.87857 26.809 4.54607 28.3656 4.51559 29.9426C4.5147 29.978 4.52092 30.0133 4.53387 30.0463C4.54682 30.0793 4.56624 30.1093 4.591 30.1347C4.61575 30.1601 4.64534 30.1802 4.678 30.194C4.71067 30.2078 4.74576 30.2149 4.78121 30.2148H6.7734C6.91949 30.2148 7.0357 30.0986 7.03902 29.9559C7.10543 27.3926 8.13473 24.992 9.95426 23.1725C11.8369 21.2898 14.3371 20.2539 17 20.2539C19.6629 20.2539 22.163 21.2898 24.0457 23.1725C25.8652 24.992 26.8945 27.3926 26.9609 29.9559C26.9642 30.102 27.0804 30.2148 27.2265 30.2148H29.2187C29.2542 30.2149 29.2893 30.2078 29.3219 30.194C29.3546 30.1802 29.3842 30.1601 29.4089 30.1347C29.4337 30.1093 29.4531 30.0793 29.4661 30.0463C29.479 30.0133 29.4852 29.978 29.4843 29.9426C29.4511 28.3555 29.1224 26.8115 28.5048 25.3539ZM17 17.7305C15.4759 17.7305 14.0416 17.1361 12.9625 16.057C11.8834 14.9779 11.289 13.5436 11.289 12.0195C11.289 10.4955 11.8834 9.06113 12.9625 7.98203C14.0416 6.90293 15.4759 6.30859 17 6.30859C18.524 6.30859 19.9584 6.90293 21.0375 7.98203C22.1166 9.06113 22.7109 10.4955 22.7109 12.0195C22.7109 13.5436 22.1166 14.9779 21.0375 16.057C19.9584 17.1361 18.524 17.7305 17 17.7305Z" fill="white"/>
</svg>
